<mxfile host="app.diagrams.net" modified="2023-06-24T11:03:12.200Z" agent="Mozilla/5.0 (Windows NT 10.0; Win64; x64) AppleWebKit/537.36 (KHTML, like Gecko) Chrome/114.0.0.0 Safari/537.36" etag="uEYVLoOGOJ69SdWznIoO" version="21.5.0" type="device">
  <diagram id="EVVXsWWkyWchfdprgOFD" name="Страница 1">
    <mxGraphModel dx="2451" dy="442" grid="1" gridSize="10" guides="1" tooltips="1" connect="1" arrows="1" fold="1" page="1" pageScale="1" pageWidth="827" pageHeight="1169" math="0" shadow="0">
      <root>
        <mxCell id="0" />
        <mxCell id="1" parent="0" />
        <mxCell id="zV0_IbH-WEWycJesRu89-1" value="&lt;font data-font-src=&quot;https://fonts.googleapis.com/css?family=ISOCPEUR&quot; face=&quot;ISOCPEUR&quot; style=&quot;font-size: 18px;&quot;&gt;Теоретическая часть&lt;/font&gt;" style="strokeWidth=2;html=1;shape=mxgraph.flowchart.display;whiteSpace=wrap;" parent="1" vertex="1">
          <mxGeometry x="300" y="460" width="200" height="100" as="geometry" />
        </mxCell>
        <mxCell id="zV0_IbH-WEWycJesRu89-2" value="&lt;font face=&quot;ISOCPEUR&quot; data-font-src=&quot;https://fonts.googleapis.com/css?family=ISOCPEUR&quot; style=&quot;font-size: 24px;&quot;&gt;Начало&lt;/font&gt;" style="strokeWidth=2;html=1;shape=mxgraph.flowchart.terminator;whiteSpace=wrap;" parent="1" vertex="1">
          <mxGeometry x="314" y="110" width="200" height="100" as="geometry" />
        </mxCell>
        <mxCell id="zV0_IbH-WEWycJesRu89-3" value="&lt;font face=&quot;ISOCPEUR&quot;&gt;&lt;span style=&quot;font-size: 18px;&quot;&gt;&lt;font style=&quot;vertical-align: inherit;&quot;&gt;&lt;font style=&quot;vertical-align: inherit;&quot;&gt;Далее&lt;/font&gt;&lt;/font&gt;&lt;/span&gt;&lt;/font&gt;" style="strokeWidth=2;html=1;shape=mxgraph.flowchart.display;whiteSpace=wrap;" parent="1" vertex="1">
          <mxGeometry x="530" y="550" width="200" height="100" as="geometry" />
        </mxCell>
        <mxCell id="zV0_IbH-WEWycJesRu89-4" value="&lt;font style=&quot;font-size: 18px;&quot; face=&quot;ISOCPEUR&quot;&gt;Регистрация&lt;/font&gt;" style="strokeWidth=2;html=1;shape=mxgraph.flowchart.display;whiteSpace=wrap;" parent="1" vertex="1">
          <mxGeometry x="1450" y="550" width="200" height="100" as="geometry" />
        </mxCell>
        <mxCell id="zV0_IbH-WEWycJesRu89-6" value="" style="line;strokeWidth=2;direction=south;html=1;" parent="1" vertex="1">
          <mxGeometry x="404" y="380" width="10" height="80" as="geometry" />
        </mxCell>
        <mxCell id="zV0_IbH-WEWycJesRu89-16" value="&lt;font style=&quot;font-size: 18px;&quot; face=&quot;ISOCPEUR&quot;&gt;&lt;font style=&quot;vertical-align: inherit;&quot;&gt;&lt;font style=&quot;vertical-align: inherit;&quot;&gt;Меню&lt;/font&gt;&lt;/font&gt;&lt;/font&gt;" style="strokeWidth=2;html=1;shape=mxgraph.flowchart.display;whiteSpace=wrap;" parent="1" vertex="1">
          <mxGeometry x="-330" y="470" width="200" height="100" as="geometry" />
        </mxCell>
        <mxCell id="zV0_IbH-WEWycJesRu89-21" value="" style="endArrow=classic;html=1;rounded=0;" parent="1" edge="1">
          <mxGeometry width="50" height="50" relative="1" as="geometry">
            <mxPoint x="160" y="510" as="sourcePoint" />
            <mxPoint x="-130" y="510" as="targetPoint" />
          </mxGeometry>
        </mxCell>
        <mxCell id="zV0_IbH-WEWycJesRu89-23" value="" style="endArrow=none;html=1;rounded=0;" parent="1" edge="1">
          <mxGeometry width="50" height="50" relative="1" as="geometry">
            <mxPoint x="1020" y="599.33" as="sourcePoint" />
            <mxPoint x="1130" y="600" as="targetPoint" />
          </mxGeometry>
        </mxCell>
        <mxCell id="zV0_IbH-WEWycJesRu89-24" value="&lt;font data-font-src=&quot;https://fonts.googleapis.com/css?family=ISOCPEUR&quot; face=&quot;ISOCPEUR&quot; style=&quot;font-size: 18px;&quot;&gt;&lt;font style=&quot;vertical-align: inherit;&quot;&gt;&lt;font style=&quot;vertical-align: inherit;&quot;&gt;Информация&lt;/font&gt;&lt;/font&gt;&lt;/font&gt;" style="strokeWidth=2;html=1;shape=mxgraph.flowchart.display;whiteSpace=wrap;" parent="1" vertex="1">
          <mxGeometry x="-190" y="650" width="200" height="100" as="geometry" />
        </mxCell>
        <mxCell id="zV0_IbH-WEWycJesRu89-25" value="" style="endArrow=none;html=1;rounded=0;entryX=0.5;entryY=1;entryDx=0;entryDy=0;entryPerimeter=0;" parent="1" target="zV0_IbH-WEWycJesRu89-16" edge="1">
          <mxGeometry width="50" height="50" relative="1" as="geometry">
            <mxPoint x="-230" y="610" as="sourcePoint" />
            <mxPoint x="370" y="610" as="targetPoint" />
          </mxGeometry>
        </mxCell>
        <mxCell id="zV0_IbH-WEWycJesRu89-26" value="" style="endArrow=none;html=1;rounded=0;startArrow=classic;startFill=1;" parent="1" edge="1">
          <mxGeometry width="50" height="50" relative="1" as="geometry">
            <mxPoint x="-900" y="610" as="sourcePoint" />
            <mxPoint x="-58" y="610" as="targetPoint" />
            <Array as="points">
              <mxPoint x="-178" y="610" />
            </Array>
          </mxGeometry>
        </mxCell>
        <mxCell id="zV0_IbH-WEWycJesRu89-27" value="" style="endArrow=none;html=1;rounded=0;exitX=0.5;exitY=0;exitDx=0;exitDy=0;exitPerimeter=0;" parent="1" source="zV0_IbH-WEWycJesRu89-24" edge="1">
          <mxGeometry width="50" height="50" relative="1" as="geometry">
            <mxPoint x="320" y="660" as="sourcePoint" />
            <mxPoint x="-90" y="610" as="targetPoint" />
          </mxGeometry>
        </mxCell>
        <mxCell id="zV0_IbH-WEWycJesRu89-32" value="&lt;font style=&quot;font-size: 18px;&quot; data-font-src=&quot;https://fonts.googleapis.com/css?family=ISOCPEUR&quot; face=&quot;ISOCPEUR&quot;&gt;Выбор темы&lt;/font&gt;" style="html=1;strokeWidth=2;shape=manualInput;whiteSpace=wrap;rounded=1;size=26;arcSize=11;" parent="1" vertex="1">
          <mxGeometry x="314" y="640" width="200" height="100" as="geometry" />
        </mxCell>
        <mxCell id="zV0_IbH-WEWycJesRu89-33" value="" style="endArrow=none;html=1;rounded=0;entryX=0.581;entryY=1.009;entryDx=0;entryDy=0;entryPerimeter=0;" parent="1" target="zV0_IbH-WEWycJesRu89-1" edge="1">
          <mxGeometry width="50" height="50" relative="1" as="geometry">
            <mxPoint x="416" y="650" as="sourcePoint" />
            <mxPoint x="440" y="570" as="targetPoint" />
          </mxGeometry>
        </mxCell>
        <mxCell id="zV0_IbH-WEWycJesRu89-34" value="&lt;font style=&quot;font-size: 18px;&quot; data-font-src=&quot;https://fonts.googleapis.com/css?family=ISOCPEUR&quot; face=&quot;ISOCPEUR&quot;&gt;&lt;font style=&quot;vertical-align: inherit;&quot;&gt;&lt;font style=&quot;vertical-align: inherit;&quot;&gt;&lt;font style=&quot;vertical-align: inherit;&quot;&gt;&lt;font style=&quot;vertical-align: inherit;&quot;&gt;*.docx&lt;/font&gt;&lt;/font&gt;&lt;/font&gt;&lt;/font&gt;&lt;/font&gt;" style="strokeWidth=2;html=1;shape=mxgraph.flowchart.direct_data;whiteSpace=wrap;" parent="1" vertex="1">
          <mxGeometry x="314" y="820" width="200" height="100" as="geometry" />
        </mxCell>
        <mxCell id="zV0_IbH-WEWycJesRu89-35" value="" style="endArrow=none;html=1;rounded=0;entryX=0.5;entryY=1;entryDx=0;entryDy=0;exitX=0.5;exitY=0;exitDx=0;exitDy=0;exitPerimeter=0;" parent="1" source="zV0_IbH-WEWycJesRu89-34" target="zV0_IbH-WEWycJesRu89-32" edge="1">
          <mxGeometry width="50" height="50" relative="1" as="geometry">
            <mxPoint x="170" y="790" as="sourcePoint" />
            <mxPoint x="220" y="740" as="targetPoint" />
          </mxGeometry>
        </mxCell>
        <mxCell id="zV0_IbH-WEWycJesRu89-36" value="" style="endArrow=none;html=1;rounded=0;entryX=0.547;entryY=1.004;entryDx=0;entryDy=0;entryPerimeter=0;" parent="1" target="zV0_IbH-WEWycJesRu89-24" edge="1">
          <mxGeometry width="50" height="50" relative="1" as="geometry">
            <mxPoint x="-81" y="850" as="sourcePoint" />
            <mxPoint x="40" y="750" as="targetPoint" />
          </mxGeometry>
        </mxCell>
        <mxCell id="zV0_IbH-WEWycJesRu89-37" value="" style="endArrow=none;html=1;rounded=0;" parent="1" edge="1">
          <mxGeometry width="50" height="50" relative="1" as="geometry">
            <mxPoint x="-80" y="850" as="sourcePoint" />
            <mxPoint x="20" y="850" as="targetPoint" />
          </mxGeometry>
        </mxCell>
        <mxCell id="zV0_IbH-WEWycJesRu89-38" value="" style="endArrow=none;html=1;rounded=0;" parent="1" edge="1">
          <mxGeometry width="50" height="50" relative="1" as="geometry">
            <mxPoint x="80" y="850" as="sourcePoint" />
            <mxPoint x="20" y="850" as="targetPoint" />
            <Array as="points" />
          </mxGeometry>
        </mxCell>
        <mxCell id="zV0_IbH-WEWycJesRu89-39" value="&lt;font data-font-src=&quot;https://fonts.googleapis.com/css?family=ISOCPEUR&quot; face=&quot;ISOCPEUR&quot; style=&quot;font-size: 18px;&quot;&gt;Теоретическая часть&lt;/font&gt;" style="strokeWidth=2;html=1;shape=mxgraph.flowchart.display;whiteSpace=wrap;" parent="1" vertex="1">
          <mxGeometry x="-30" y="890" width="200" height="100" as="geometry" />
        </mxCell>
        <mxCell id="zV0_IbH-WEWycJesRu89-40" value="" style="endArrow=none;html=1;rounded=0;entryX=0.548;entryY=-0.005;entryDx=0;entryDy=0;entryPerimeter=0;" parent="1" target="zV0_IbH-WEWycJesRu89-39" edge="1">
          <mxGeometry width="50" height="50" relative="1" as="geometry">
            <mxPoint x="80" y="850" as="sourcePoint" />
            <mxPoint x="80" y="780" as="targetPoint" />
          </mxGeometry>
        </mxCell>
        <mxCell id="zV0_IbH-WEWycJesRu89-41" value="" style="endArrow=none;html=1;rounded=0;" parent="1" edge="1">
          <mxGeometry width="50" height="50" relative="1" as="geometry">
            <mxPoint x="420" y="600" as="sourcePoint" />
            <mxPoint x="530" y="600" as="targetPoint" />
          </mxGeometry>
        </mxCell>
        <mxCell id="zV0_IbH-WEWycJesRu89-42" value="" style="endArrow=none;html=1;rounded=0;" parent="1" edge="1">
          <mxGeometry width="50" height="50" relative="1" as="geometry">
            <mxPoint x="-80" y="850" as="sourcePoint" />
            <mxPoint x="-80" y="1120" as="targetPoint" />
          </mxGeometry>
        </mxCell>
        <mxCell id="zV0_IbH-WEWycJesRu89-43" value="" style="endArrow=none;html=1;rounded=0;exitX=0.553;exitY=1.023;exitDx=0;exitDy=0;exitPerimeter=0;" parent="1" source="zV0_IbH-WEWycJesRu89-39" edge="1">
          <mxGeometry width="50" height="50" relative="1" as="geometry">
            <mxPoint x="490" y="950" as="sourcePoint" />
            <mxPoint x="80" y="1060" as="targetPoint" />
          </mxGeometry>
        </mxCell>
        <mxCell id="zV0_IbH-WEWycJesRu89-44" value="" style="endArrow=none;html=1;rounded=0;" parent="1" edge="1">
          <mxGeometry width="50" height="50" relative="1" as="geometry">
            <mxPoint x="80" y="1060" as="sourcePoint" />
            <mxPoint x="200" y="1060" as="targetPoint" />
          </mxGeometry>
        </mxCell>
        <mxCell id="zV0_IbH-WEWycJesRu89-45" value="" style="endArrow=classic;html=1;rounded=0;endFill=1;" parent="1" edge="1">
          <mxGeometry width="50" height="50" relative="1" as="geometry">
            <mxPoint x="200" y="1060" as="sourcePoint" />
            <mxPoint x="200" y="430" as="targetPoint" />
          </mxGeometry>
        </mxCell>
        <mxCell id="zV0_IbH-WEWycJesRu89-46" value="" style="endArrow=none;html=1;rounded=0;" parent="1" edge="1">
          <mxGeometry width="50" height="50" relative="1" as="geometry">
            <mxPoint x="200" y="430" as="sourcePoint" />
            <mxPoint x="409" y="430" as="targetPoint" />
          </mxGeometry>
        </mxCell>
        <mxCell id="zV0_IbH-WEWycJesRu89-47" value="&lt;font style=&quot;font-size: 18px;&quot; data-font-src=&quot;https://fonts.googleapis.com/css?family=ISOCPEUR&quot; face=&quot;ISOCPEUR&quot;&gt;&lt;font style=&quot;vertical-align: inherit;&quot;&gt;&lt;font style=&quot;vertical-align: inherit;&quot;&gt;Описание практической части&lt;/font&gt;&lt;/font&gt;&lt;/font&gt;" style="strokeWidth=2;html=1;shape=mxgraph.flowchart.display;whiteSpace=wrap;" parent="1" vertex="1">
          <mxGeometry x="-20" y="1160" width="200" height="100" as="geometry" />
        </mxCell>
        <mxCell id="zV0_IbH-WEWycJesRu89-48" value="" style="endArrow=none;html=1;rounded=0;" parent="1" edge="1">
          <mxGeometry width="50" height="50" relative="1" as="geometry">
            <mxPoint x="-80" y="1120" as="sourcePoint" />
            <mxPoint x="80" y="1120" as="targetPoint" />
          </mxGeometry>
        </mxCell>
        <mxCell id="zV0_IbH-WEWycJesRu89-49" value="" style="endArrow=none;html=1;rounded=0;" parent="1" target="zV0_IbH-WEWycJesRu89-47" edge="1">
          <mxGeometry width="50" height="50" relative="1" as="geometry">
            <mxPoint x="80" y="1120" as="sourcePoint" />
            <mxPoint x="160" y="1000" as="targetPoint" />
          </mxGeometry>
        </mxCell>
        <mxCell id="zV0_IbH-WEWycJesRu89-50" value="" style="endArrow=none;html=1;rounded=0;entryX=0.5;entryY=1;entryDx=0;entryDy=0;entryPerimeter=0;" parent="1" target="zV0_IbH-WEWycJesRu89-47" edge="1">
          <mxGeometry width="50" height="50" relative="1" as="geometry">
            <mxPoint x="80" y="1320" as="sourcePoint" />
            <mxPoint x="50" y="1210" as="targetPoint" />
          </mxGeometry>
        </mxCell>
        <mxCell id="zV0_IbH-WEWycJesRu89-52" value="&lt;font style=&quot;font-size: 18px;&quot; data-font-src=&quot;https://fonts.googleapis.com/css?family=ISOCPEUR&quot; face=&quot;ISOCPEUR&quot;&gt;&lt;font style=&quot;vertical-align: inherit;&quot;&gt;&lt;font style=&quot;vertical-align: inherit;&quot;&gt;*.docx&lt;/font&gt;&lt;/font&gt;&lt;/font&gt;" style="strokeWidth=2;html=1;shape=mxgraph.flowchart.direct_data;whiteSpace=wrap;" parent="1" vertex="1">
          <mxGeometry x="840" y="940" width="200" height="100" as="geometry" />
        </mxCell>
        <mxCell id="zV0_IbH-WEWycJesRu89-53" value="" style="endArrow=none;html=1;rounded=0;entryX=0.554;entryY=0.995;entryDx=0;entryDy=0;entryPerimeter=0;exitX=0.5;exitY=0;exitDx=0;exitDy=0;exitPerimeter=0;" parent="1" source="9_CVf3vyx_b7d1sgW4-7-7" target="ByQWVQeBNKNc2jMHiQ6X-1" edge="1">
          <mxGeometry width="50" height="50" relative="1" as="geometry">
            <mxPoint x="940" y="710" as="sourcePoint" />
            <mxPoint x="920" y="660" as="targetPoint" />
            <Array as="points" />
          </mxGeometry>
        </mxCell>
        <mxCell id="zV0_IbH-WEWycJesRu89-54" value="" style="endArrow=none;html=1;rounded=0;exitX=0.5;exitY=0;exitDx=0;exitDy=0;exitPerimeter=0;entryX=0.5;entryY=0.88;entryDx=0;entryDy=0;entryPerimeter=0;" parent="1" source="zV0_IbH-WEWycJesRu89-52" target="9_CVf3vyx_b7d1sgW4-7-7" edge="1">
          <mxGeometry width="50" height="50" relative="1" as="geometry">
            <mxPoint x="660" y="850" as="sourcePoint" />
            <mxPoint x="940" y="820" as="targetPoint" />
          </mxGeometry>
        </mxCell>
        <mxCell id="zV0_IbH-WEWycJesRu89-58" value="" style="edgeStyle=elbowEdgeStyle;elbow=horizontal;endArrow=none;html=1;curved=0;rounded=0;endSize=8;startSize=8;endFill=0;" parent="1" edge="1">
          <mxGeometry width="50" height="50" relative="1" as="geometry">
            <mxPoint x="80" y="1320" as="sourcePoint" />
            <mxPoint x="780" y="1320" as="targetPoint" />
            <Array as="points">
              <mxPoint x="350" y="1350" />
            </Array>
          </mxGeometry>
        </mxCell>
        <mxCell id="zV0_IbH-WEWycJesRu89-59" value="" style="endArrow=classic;html=1;rounded=0;endFill=1;" parent="1" edge="1">
          <mxGeometry width="50" height="50" relative="1" as="geometry">
            <mxPoint x="780" y="1320" as="sourcePoint" />
            <mxPoint x="780" y="600" as="targetPoint" />
          </mxGeometry>
        </mxCell>
        <mxCell id="zV0_IbH-WEWycJesRu89-60" value="" style="endArrow=none;html=1;rounded=0;" parent="1" edge="1">
          <mxGeometry width="50" height="50" relative="1" as="geometry">
            <mxPoint x="-80" y="1350" as="sourcePoint" />
            <mxPoint x="-80" y="1120" as="targetPoint" />
            <Array as="points" />
          </mxGeometry>
        </mxCell>
        <mxCell id="zV0_IbH-WEWycJesRu89-62" value="" style="endArrow=none;html=1;rounded=0;" parent="1" edge="1">
          <mxGeometry width="50" height="50" relative="1" as="geometry">
            <mxPoint x="-80" y="1350" as="sourcePoint" />
            <mxPoint x="80" y="1350" as="targetPoint" />
            <Array as="points">
              <mxPoint y="1350" />
            </Array>
          </mxGeometry>
        </mxCell>
        <mxCell id="zV0_IbH-WEWycJesRu89-63" value="" style="endArrow=none;html=1;rounded=0;" parent="1" edge="1">
          <mxGeometry width="50" height="50" relative="1" as="geometry">
            <mxPoint x="80" y="1400" as="sourcePoint" />
            <mxPoint x="80" y="1350" as="targetPoint" />
          </mxGeometry>
        </mxCell>
        <mxCell id="zV0_IbH-WEWycJesRu89-64" value="&lt;font style=&quot;font-size: 18px;&quot; face=&quot;ISOCPEUR&quot;&gt;&lt;font style=&quot;vertical-align: inherit;&quot;&gt;&lt;font style=&quot;vertical-align: inherit;&quot;&gt;Регистрация&lt;/font&gt;&lt;/font&gt;&lt;/font&gt;" style="strokeWidth=2;html=1;shape=mxgraph.flowchart.display;whiteSpace=wrap;" parent="1" vertex="1">
          <mxGeometry x="-20" y="1400" width="200" height="100" as="geometry" />
        </mxCell>
        <mxCell id="zV0_IbH-WEWycJesRu89-65" value="" style="endArrow=none;html=1;rounded=0;entryX=0.5;entryY=1;entryDx=0;entryDy=0;entryPerimeter=0;" parent="1" target="zV0_IbH-WEWycJesRu89-64" edge="1">
          <mxGeometry width="50" height="50" relative="1" as="geometry">
            <mxPoint x="80" y="1550" as="sourcePoint" />
            <mxPoint x="280" y="1680" as="targetPoint" />
          </mxGeometry>
        </mxCell>
        <mxCell id="zV0_IbH-WEWycJesRu89-66" value="" style="endArrow=none;html=1;rounded=0;" parent="1" edge="1">
          <mxGeometry width="50" height="50" relative="1" as="geometry">
            <mxPoint x="80" y="1550" as="sourcePoint" />
            <mxPoint x="1080" y="1550" as="targetPoint" />
          </mxGeometry>
        </mxCell>
        <mxCell id="zV0_IbH-WEWycJesRu89-67" value="" style="endArrow=classic;html=1;rounded=0;endFill=1;" parent="1" edge="1">
          <mxGeometry width="50" height="50" relative="1" as="geometry">
            <mxPoint x="1080" y="1550" as="sourcePoint" />
            <mxPoint x="1080" y="600" as="targetPoint" />
          </mxGeometry>
        </mxCell>
        <mxCell id="zV0_IbH-WEWycJesRu89-69" value="" style="endArrow=none;html=1;rounded=0;entryX=0.5;entryY=1;entryDx=0;entryDy=0;entryPerimeter=0;exitX=0.5;exitY=0.104;exitDx=0;exitDy=0;exitPerimeter=0;" parent="1" source="9_CVf3vyx_b7d1sgW4-7-1" target="zV0_IbH-WEWycJesRu89-4" edge="1">
          <mxGeometry width="50" height="50" relative="1" as="geometry">
            <mxPoint x="1070" y="840" as="sourcePoint" />
            <mxPoint x="1070" y="740" as="targetPoint" />
          </mxGeometry>
        </mxCell>
        <mxCell id="27d4enZPTtEA7cWfbYbX-1" value="&lt;font face=&quot;ISOCPEUR&quot;&gt;&lt;span style=&quot;font-size: 18px;&quot;&gt;&lt;font style=&quot;vertical-align: inherit;&quot;&gt;&lt;font style=&quot;vertical-align: inherit;&quot;&gt;Заставка&lt;/font&gt;&lt;/font&gt;&lt;/span&gt;&lt;/font&gt;" style="strokeWidth=2;html=1;shape=mxgraph.flowchart.display;whiteSpace=wrap;" parent="1" vertex="1">
          <mxGeometry x="309" y="280" width="200" height="100" as="geometry" />
        </mxCell>
        <mxCell id="27d4enZPTtEA7cWfbYbX-2" value="" style="endArrow=none;html=1;rounded=0;entryX=0.5;entryY=1;entryDx=0;entryDy=0;entryPerimeter=0;exitX=0.531;exitY=-0.027;exitDx=0;exitDy=0;exitPerimeter=0;" parent="1" source="27d4enZPTtEA7cWfbYbX-1" target="zV0_IbH-WEWycJesRu89-2" edge="1">
          <mxGeometry width="50" height="50" relative="1" as="geometry">
            <mxPoint x="420" y="280" as="sourcePoint" />
            <mxPoint x="450" y="400" as="targetPoint" />
          </mxGeometry>
        </mxCell>
        <mxCell id="27d4enZPTtEA7cWfbYbX-3" value="&lt;font style=&quot;font-size: 18px;&quot; data-font-src=&quot;https://fonts.googleapis.com/css?family=ISOCPEUR&quot; face=&quot;ISOCPEUR&quot;&gt;*.txt&lt;/font&gt;" style="strokeWidth=2;html=1;shape=mxgraph.flowchart.direct_data;whiteSpace=wrap;" parent="1" vertex="1">
          <mxGeometry x="1980" y="880" width="200" height="100" as="geometry" />
        </mxCell>
        <mxCell id="27d4enZPTtEA7cWfbYbX-4" value="" style="endArrow=none;html=1;rounded=0;entryX=0.5;entryY=0.88;entryDx=0;entryDy=0;entryPerimeter=0;exitX=0.55;exitY=0;exitDx=0;exitDy=0;exitPerimeter=0;" parent="1" source="27d4enZPTtEA7cWfbYbX-3" target="9_CVf3vyx_b7d1sgW4-7-6" edge="1">
          <mxGeometry width="50" height="50" relative="1" as="geometry">
            <mxPoint x="1720" y="870" as="sourcePoint" />
            <mxPoint x="1710" y="810" as="targetPoint" />
          </mxGeometry>
        </mxCell>
        <mxCell id="27d4enZPTtEA7cWfbYbX-5" value="&lt;font style=&quot;font-size: 18px;&quot; data-font-src=&quot;https://fonts.googleapis.com/css?family=ISOCPEUR&quot; face=&quot;ISOCPEUR&quot;&gt;Вывод результатов&lt;/font&gt;" style="rounded=0;whiteSpace=wrap;html=1;" parent="1" vertex="1">
          <mxGeometry x="1980" y="1080" width="200" height="100" as="geometry" />
        </mxCell>
        <mxCell id="27d4enZPTtEA7cWfbYbX-6" value="" style="endArrow=none;html=1;rounded=0;entryX=0.5;entryY=1;entryDx=0;entryDy=0;entryPerimeter=0;exitX=0.5;exitY=0;exitDx=0;exitDy=0;" parent="1" source="27d4enZPTtEA7cWfbYbX-5" target="27d4enZPTtEA7cWfbYbX-3" edge="1">
          <mxGeometry width="50" height="50" relative="1" as="geometry">
            <mxPoint x="1390" y="1060" as="sourcePoint" />
            <mxPoint x="1440" y="1010" as="targetPoint" />
          </mxGeometry>
        </mxCell>
        <mxCell id="9_CVf3vyx_b7d1sgW4-7-1" value="&lt;font face=&quot;ISOCPEUR&quot;&gt;&lt;span style=&quot;font-size: 18px;&quot;&gt;&lt;font style=&quot;vertical-align: inherit;&quot;&gt;&lt;font style=&quot;vertical-align: inherit;&quot;&gt;Регистрация&lt;/font&gt;&lt;/font&gt;&lt;/span&gt;&lt;/font&gt;" style="html=1;strokeWidth=2;shape=manualInput;whiteSpace=wrap;rounded=1;size=26;arcSize=11;" parent="1" vertex="1">
          <mxGeometry x="1450" y="720" width="200" height="110" as="geometry" />
        </mxCell>
        <mxCell id="9_CVf3vyx_b7d1sgW4-7-3" value="" style="endArrow=none;html=1;rounded=0;entryX=0;entryY=0.5;entryDx=0;entryDy=0;entryPerimeter=0;" parent="1" target="zV0_IbH-WEWycJesRu89-1" edge="1">
          <mxGeometry width="50" height="50" relative="1" as="geometry">
            <mxPoint x="240" y="510" as="sourcePoint" />
            <mxPoint x="290" y="500" as="targetPoint" />
          </mxGeometry>
        </mxCell>
        <mxCell id="9_CVf3vyx_b7d1sgW4-7-5" value="" style="endArrow=none;html=1;rounded=0;" parent="1" edge="1">
          <mxGeometry width="50" height="50" relative="1" as="geometry">
            <mxPoint x="160" y="510" as="sourcePoint" />
            <mxPoint x="240" y="510" as="targetPoint" />
            <Array as="points">
              <mxPoint x="200" y="500" />
            </Array>
          </mxGeometry>
        </mxCell>
        <mxCell id="9_CVf3vyx_b7d1sgW4-7-6" value="&lt;font style=&quot;font-size: 18px;&quot; face=&quot;ISOCPEUR&quot;&gt;Тестовые задания&lt;/font&gt;" style="strokeWidth=2;html=1;shape=mxgraph.flowchart.multi-document;whiteSpace=wrap;" parent="1" vertex="1">
          <mxGeometry x="1990" y="680" width="200" height="100" as="geometry" />
        </mxCell>
        <mxCell id="9_CVf3vyx_b7d1sgW4-7-7" value="&lt;font style=&quot;font-size: 18px;&quot; face=&quot;ISOCPEUR&quot;&gt;&lt;font style=&quot;vertical-align: inherit;&quot;&gt;&lt;font style=&quot;vertical-align: inherit;&quot;&gt;Генерирование &lt;/font&gt;&lt;/font&gt;&lt;br&gt;&lt;font style=&quot;vertical-align: inherit;&quot;&gt;&lt;font style=&quot;vertical-align: inherit;&quot;&gt;теории&lt;/font&gt;&lt;/font&gt;&lt;br&gt;&lt;/font&gt;" style="strokeWidth=2;html=1;shape=mxgraph.flowchart.multi-document;whiteSpace=wrap;" parent="1" vertex="1">
          <mxGeometry x="840" y="720" width="200" height="100" as="geometry" />
        </mxCell>
        <mxCell id="UK_9lNU-_bsVXEMvipDA-1" value="&lt;font face=&quot;ISOCPEUR&quot;&gt;&lt;span style=&quot;font-size: 24px;&quot;&gt;Выход&lt;/span&gt;&lt;/font&gt;" style="strokeWidth=2;html=1;shape=mxgraph.flowchart.terminator;whiteSpace=wrap;" parent="1" vertex="1">
          <mxGeometry x="340" y="1690" width="200" height="100" as="geometry" />
        </mxCell>
        <mxCell id="UK_9lNU-_bsVXEMvipDA-3" value="" style="endArrow=none;html=1;rounded=0;" parent="1" edge="1">
          <mxGeometry width="50" height="50" relative="1" as="geometry">
            <mxPoint x="1100" y="1599.4" as="sourcePoint" />
            <mxPoint x="2080" y="1180" as="targetPoint" />
            <Array as="points">
              <mxPoint x="1280" y="1599.4" />
              <mxPoint x="2080" y="1599.4" />
            </Array>
          </mxGeometry>
        </mxCell>
        <mxCell id="UK_9lNU-_bsVXEMvipDA-4" value="" style="endArrow=classic;html=1;rounded=0;" parent="1" edge="1">
          <mxGeometry width="50" height="50" relative="1" as="geometry">
            <mxPoint x="1100" y="1600" as="sourcePoint" />
            <mxPoint x="440" y="1600" as="targetPoint" />
          </mxGeometry>
        </mxCell>
        <mxCell id="UK_9lNU-_bsVXEMvipDA-8" value="" style="endArrow=none;html=1;rounded=0;exitX=0.5;exitY=0;exitDx=0;exitDy=0;exitPerimeter=0;" parent="1" source="UK_9lNU-_bsVXEMvipDA-1" edge="1">
          <mxGeometry width="50" height="50" relative="1" as="geometry">
            <mxPoint x="440" y="1680" as="sourcePoint" />
            <mxPoint x="440" y="1600" as="targetPoint" />
          </mxGeometry>
        </mxCell>
        <mxCell id="ByQWVQeBNKNc2jMHiQ6X-1" value="&lt;font face=&quot;ISOCPEUR&quot;&gt;&lt;span style=&quot;font-size: 18px;&quot;&gt;&lt;font style=&quot;vertical-align: inherit;&quot;&gt;&lt;font style=&quot;vertical-align: inherit;&quot;&gt;&lt;font style=&quot;vertical-align: inherit;&quot;&gt;&lt;font style=&quot;vertical-align: inherit;&quot;&gt;Описание практической части&lt;/font&gt;&lt;/font&gt;&lt;/font&gt;&lt;/font&gt;&lt;/span&gt;&lt;/font&gt;" style="strokeWidth=2;html=1;shape=mxgraph.flowchart.display;whiteSpace=wrap;" parent="1" vertex="1">
          <mxGeometry x="830" y="550" width="200" height="100" as="geometry" />
        </mxCell>
        <mxCell id="ByQWVQeBNKNc2jMHiQ6X-2" value="" style="endArrow=none;html=1;rounded=0;exitX=1;exitY=0.5;exitDx=0;exitDy=0;exitPerimeter=0;entryX=0;entryY=0.5;entryDx=0;entryDy=0;entryPerimeter=0;" parent="1" source="zV0_IbH-WEWycJesRu89-3" target="ByQWVQeBNKNc2jMHiQ6X-1" edge="1">
          <mxGeometry width="50" height="50" relative="1" as="geometry">
            <mxPoint x="900" y="670" as="sourcePoint" />
            <mxPoint x="950" y="620" as="targetPoint" />
          </mxGeometry>
        </mxCell>
        <mxCell id="ByQWVQeBNKNc2jMHiQ6X-3" value="&lt;font face=&quot;ISOCPEUR&quot;&gt;&lt;span style=&quot;font-size: 18px;&quot;&gt;&lt;font style=&quot;vertical-align: inherit;&quot;&gt;&lt;font style=&quot;vertical-align: inherit;&quot;&gt;&lt;font style=&quot;vertical-align: inherit;&quot;&gt;&lt;font style=&quot;vertical-align: inherit;&quot;&gt;Далее&lt;/font&gt;&lt;/font&gt;&lt;/font&gt;&lt;/font&gt;&lt;/span&gt;&lt;/font&gt;" style="strokeWidth=2;html=1;shape=mxgraph.flowchart.display;whiteSpace=wrap;" parent="1" vertex="1">
          <mxGeometry x="1130" y="550" width="200" height="100" as="geometry" />
        </mxCell>
        <mxCell id="ByQWVQeBNKNc2jMHiQ6X-6" value="" style="endArrow=none;html=1;rounded=0;exitX=1;exitY=0.5;exitDx=0;exitDy=0;exitPerimeter=0;endFill=0;" parent="1" source="ByQWVQeBNKNc2jMHiQ6X-3" edge="1">
          <mxGeometry width="50" height="50" relative="1" as="geometry">
            <mxPoint x="1300" y="670" as="sourcePoint" />
            <mxPoint x="1450" y="600" as="targetPoint" />
          </mxGeometry>
        </mxCell>
        <mxCell id="ByQWVQeBNKNc2jMHiQ6X-8" value="&lt;font face=&quot;ISOCPEUR&quot;&gt;&lt;span style=&quot;font-size: 24px;&quot;&gt;Конец&lt;/span&gt;&lt;/font&gt;" style="strokeWidth=2;html=1;shape=mxgraph.flowchart.terminator;whiteSpace=wrap;" parent="1" vertex="1">
          <mxGeometry x="340" y="1860" width="200" height="100" as="geometry" />
        </mxCell>
        <mxCell id="ByQWVQeBNKNc2jMHiQ6X-9" value="" style="endArrow=none;html=1;rounded=0;entryX=0.5;entryY=1;entryDx=0;entryDy=0;entryPerimeter=0;exitX=0.5;exitY=0;exitDx=0;exitDy=0;exitPerimeter=0;" parent="1" source="ByQWVQeBNKNc2jMHiQ6X-8" target="UK_9lNU-_bsVXEMvipDA-1" edge="1">
          <mxGeometry width="50" height="50" relative="1" as="geometry">
            <mxPoint x="290" y="1880" as="sourcePoint" />
            <mxPoint x="340" y="1830" as="targetPoint" />
          </mxGeometry>
        </mxCell>
        <mxCell id="ByQWVQeBNKNc2jMHiQ6X-10" value="&lt;font face=&quot;ISOCPEUR&quot;&gt;&lt;span style=&quot;font-size: 18px;&quot;&gt;Справка&lt;/span&gt;&lt;/font&gt;" style="strokeWidth=2;html=1;shape=mxgraph.flowchart.display;whiteSpace=wrap;" parent="1" vertex="1">
          <mxGeometry x="-463" y="650" width="200" height="100" as="geometry" />
        </mxCell>
        <mxCell id="ByQWVQeBNKNc2jMHiQ6X-14" value="" style="endArrow=none;html=1;rounded=0;entryX=0.55;entryY=1.004;entryDx=0;entryDy=0;entryPerimeter=0;exitX=0.551;exitY=-0.01;exitDx=0;exitDy=0;exitPerimeter=0;" parent="1" target="ByQWVQeBNKNc2jMHiQ6X-10" edge="1">
          <mxGeometry width="50" height="50" relative="1" as="geometry">
            <mxPoint x="-352.8000000000002" y="798.9999999999998" as="sourcePoint" />
            <mxPoint x="-283" y="850" as="targetPoint" />
          </mxGeometry>
        </mxCell>
        <mxCell id="ByQWVQeBNKNc2jMHiQ6X-15" value="" style="endArrow=none;html=1;rounded=0;" parent="1" edge="1">
          <mxGeometry width="50" height="50" relative="1" as="geometry">
            <mxPoint x="-630" y="650" as="sourcePoint" />
            <mxPoint x="-630" y="610" as="targetPoint" />
          </mxGeometry>
        </mxCell>
        <mxCell id="ByQWVQeBNKNc2jMHiQ6X-16" value="&lt;font face=&quot;ISOCPEUR&quot;&gt;&lt;span style=&quot;font-size: 18px;&quot;&gt;Файл&lt;/span&gt;&lt;/font&gt;" style="strokeWidth=2;html=1;shape=mxgraph.flowchart.display;whiteSpace=wrap;" parent="1" vertex="1">
          <mxGeometry x="-740" y="650" width="200" height="100" as="geometry" />
        </mxCell>
        <mxCell id="ByQWVQeBNKNc2jMHiQ6X-17" value="&lt;font style=&quot;font-size: 18px;&quot; data-font-src=&quot;https://fonts.googleapis.com/css?family=ISOCPEUR&quot; face=&quot;ISOCPEUR&quot;&gt;Закрытие программы&lt;/font&gt;" style="rounded=0;whiteSpace=wrap;html=1;" parent="1" vertex="1">
          <mxGeometry x="-733" y="800" width="200" height="100" as="geometry" />
        </mxCell>
        <mxCell id="ByQWVQeBNKNc2jMHiQ6X-18" value="" style="endArrow=none;html=1;rounded=0;exitX=0.536;exitY=0.996;exitDx=0;exitDy=0;exitPerimeter=0;entryX=0.5;entryY=0;entryDx=0;entryDy=0;" parent="1" source="ByQWVQeBNKNc2jMHiQ6X-16" target="ByQWVQeBNKNc2jMHiQ6X-17" edge="1">
          <mxGeometry width="50" height="50" relative="1" as="geometry">
            <mxPoint x="-473" y="720" as="sourcePoint" />
            <mxPoint x="-423" y="670" as="targetPoint" />
          </mxGeometry>
        </mxCell>
        <mxCell id="ByQWVQeBNKNc2jMHiQ6X-20" value="" style="endArrow=none;html=1;rounded=0;entryX=0.5;entryY=1;entryDx=0;entryDy=0;" parent="1" edge="1">
          <mxGeometry width="50" height="50" relative="1" as="geometry">
            <mxPoint x="-900" y="1600" as="sourcePoint" />
            <mxPoint x="-900" y="750" as="targetPoint" />
          </mxGeometry>
        </mxCell>
        <mxCell id="ByQWVQeBNKNc2jMHiQ6X-21" value="" style="endArrow=none;html=1;rounded=0;" parent="1" edge="1">
          <mxGeometry width="50" height="50" relative="1" as="geometry">
            <mxPoint x="-900" y="1600" as="sourcePoint" />
            <mxPoint x="430" y="1600" as="targetPoint" />
          </mxGeometry>
        </mxCell>
        <mxCell id="ByQWVQeBNKNc2jMHiQ6X-23" value="" style="endArrow=none;html=1;rounded=0;" parent="1" edge="1">
          <mxGeometry width="50" height="50" relative="1" as="geometry">
            <mxPoint x="-353" y="650" as="sourcePoint" />
            <mxPoint x="-353" y="610" as="targetPoint" />
          </mxGeometry>
        </mxCell>
        <mxCell id="JgjhQa6jRZ5XvVSR24Sq-1" value="&lt;font face=&quot;ISOCPEUR&quot;&gt;&lt;span style=&quot;font-size: 18px;&quot;&gt;&lt;font style=&quot;vertical-align: inherit;&quot;&gt;&lt;font style=&quot;vertical-align: inherit;&quot;&gt;Информация о программе&lt;/font&gt;&lt;/font&gt;&lt;/span&gt;&lt;/font&gt;" style="rounded=0;whiteSpace=wrap;html=1;" parent="1" vertex="1">
          <mxGeometry x="-453" y="800" width="200" height="100" as="geometry" />
        </mxCell>
        <mxCell id="Xbk0YDWy1XKFmqCCJk7--2" value="" style="endArrow=none;html=1;rounded=0;exitX=1;exitY=0.5;exitDx=0;exitDy=0;exitPerimeter=0;endFill=0;" parent="1" edge="1">
          <mxGeometry width="50" height="50" relative="1" as="geometry">
            <mxPoint x="1650" y="599.5" as="sourcePoint" />
            <mxPoint x="1770" y="599.5" as="targetPoint" />
          </mxGeometry>
        </mxCell>
        <mxCell id="Xbk0YDWy1XKFmqCCJk7--3" value="&lt;font style=&quot;font-size: 18px;&quot; face=&quot;ISOCPEUR&quot;&gt;Тест&lt;/font&gt;" style="strokeWidth=2;html=1;shape=mxgraph.flowchart.display;whiteSpace=wrap;" parent="1" vertex="1">
          <mxGeometry x="1770" y="550" width="200" height="100" as="geometry" />
        </mxCell>
        <mxCell id="6PbKGCcui0C1gRaExW7k-1" value="" style="endArrow=none;html=1;rounded=0;entryX=0.5;entryY=1;entryDx=0;entryDy=0;entryPerimeter=0;exitX=0.5;exitY=0.104;exitDx=0;exitDy=0;exitPerimeter=0;" parent="1" edge="1">
          <mxGeometry width="50" height="50" relative="1" as="geometry">
            <mxPoint x="2090" y="681" as="sourcePoint" />
            <mxPoint x="2090" y="600" as="targetPoint" />
          </mxGeometry>
        </mxCell>
        <mxCell id="6PbKGCcui0C1gRaExW7k-2" value="" style="endArrow=none;html=1;rounded=0;exitX=1;exitY=0.5;exitDx=0;exitDy=0;exitPerimeter=0;endFill=0;" parent="1" edge="1">
          <mxGeometry width="50" height="50" relative="1" as="geometry">
            <mxPoint x="1970" y="598.89" as="sourcePoint" />
            <mxPoint x="2090" y="598.89" as="targetPoint" />
          </mxGeometry>
        </mxCell>
        <mxCell id="LPVMm5TeGQmmKUzqyGul-2" value="&lt;font face=&quot;ISOCPEUR&quot;&gt;&lt;span style=&quot;font-size: 18px;&quot;&gt;О программе&lt;/span&gt;&lt;/font&gt;" style="strokeWidth=2;html=1;shape=mxgraph.flowchart.display;whiteSpace=wrap;" vertex="1" parent="1">
          <mxGeometry x="-1010" y="650" width="200" height="100" as="geometry" />
        </mxCell>
        <mxCell id="LPVMm5TeGQmmKUzqyGul-3" value="" style="endArrow=none;html=1;rounded=0;" edge="1" parent="1">
          <mxGeometry width="50" height="50" relative="1" as="geometry">
            <mxPoint x="-900" y="650" as="sourcePoint" />
            <mxPoint x="-900" y="610" as="targetPoint" />
          </mxGeometry>
        </mxCell>
      </root>
    </mxGraphModel>
  </diagram>
</mxfile>
